<svg xmlns="http://www.w3.org/2000/svg" xmlns:xlink="http://www.w3.org/1999/xlink" viewBox="0,0,256,256" width="50px" height="50px"><g fill="none" fill-rule="nonzero" stroke="none" stroke-width="1" stroke-linecap="butt" stroke-linejoin="miter" stroke-miterlimit="10" stroke-dasharray="" stroke-dashoffset="0" font-family="none" font-weight="none" font-size="none" text-anchor="none" style="mix-blend-mode: normal"><g transform="scale(5.33333,5.33333)"><path d="M32,10c-7.73199,0 -14,6.26801 -14,14c0,7.73199 6.26801,14 14,14c7.73199,0 14,-6.26801 14,-14c0,-7.73199 -6.26801,-14 -14,-14z" fill="#ff9800"></path><path d="M16,10c-7.73199,0 -14,6.26801 -14,14c0,7.73199 6.26801,14 14,14c7.73199,0 14,-6.26801 14,-14c0,-7.73199 -6.26801,-14 -14,-14z" fill="#d50000"></path><path d="M18,24c0,4.755 2.376,8.95 6,11.48c3.624,-2.53 6,-6.725 6,-11.48c0,-4.755 -2.376,-8.95 -6,-11.48c-3.624,2.53 -6,6.725 -6,11.48z" fill="#ff3d00"></path></g></g><g fill="#ffffff" fill-rule="nonzero" stroke="none" stroke-width="1" stroke-linecap="butt" stroke-linejoin="miter" stroke-miterlimit="10" stroke-dasharray="" stroke-dashoffset="0" font-family="none" font-weight="none" font-size="none" text-anchor="none" style="mix-blend-mode: normal"><g><path d="M56.40167,142.68v-20.06l0.43,-4.48h-0.22l-1.62,4.1l-7.76,13.48h-1.07l-8.23,-13.52l-1.54,-4.06h-0.21l0.59,4.44v20.1h-3.32v-29.87h2.64l9.35,15.27l1.4,3.33h0.09l1.32,-3.41l8.92,-15.19h2.77v29.87zM67.58167,125.48l-1.07,-2.56c1.08,-0.65333 2.34,-1.13667 3.78,-1.45c1.43333,-0.31333 2.93333,-0.47 4.5,-0.47v0c1.48,0 2.66667,0.2 3.56,0.6c0.9,0.4 1.58333,0.92 2.05,1.56c0.47333,0.64 0.78667,1.34333 0.94,2.11c0.15333,0.76667 0.23,1.53333 0.23,2.3v0c0,1.70667 -0.04,3.37 -0.12,4.99c-0.08667,1.62667 -0.13,3.16333 -0.13,4.61v0c0,1.05333 0.04333,2.05 0.13,2.99c0.08,0.94 0.23667,1.80667 0.47,2.6v0h-2.52l-0.9,-2.98h-0.21c-0.25333,0.39333 -0.57333,0.78333 -0.96,1.17c-0.38667,0.38 -0.85,0.72 -1.39,1.02c-0.54,0.3 -1.16333,0.55 -1.87,0.75c-0.71333,0.2 -1.52667,0.3 -2.44,0.3v0c-0.90667,0 -1.75333,-0.14333 -2.54,-0.43c-0.78,-0.28667 -1.45333,-0.69 -2.02,-1.21c-0.57333,-0.52667 -1.02333,-1.16 -1.35,-1.9c-0.32667,-0.74 -0.49,-1.58 -0.49,-2.52v0c0,-1.25333 0.25667,-2.3 0.77,-3.14c0.51333,-0.84 1.23333,-1.50667 2.16,-2c0.92,-0.5 2.02667,-0.85667 3.32,-1.07c1.3,-0.21333 2.73,-0.32 4.29,-0.32v0c0.4,0 0.79333,0 1.18,0c0.38,0 0.77,0.03 1.17,0.09v0c0.08667,-0.85333 0.13,-1.62333 0.13,-2.31v0c0,-1.56 -0.31333,-2.65333 -0.94,-3.28c-0.62667,-0.62667 -1.76667,-0.94 -3.42,-0.94v0c-0.48,0 -0.99667,0.03667 -1.55,0.11c-0.55333,0.06667 -1.12333,0.16333 -1.71,0.29c-0.58,0.13333 -1.13333,0.29 -1.66,0.47c-0.52667,0.18667 -0.99,0.39333 -1.39,0.62zM72.57167,140.03v0c0.8,0 1.51333,-0.10667 2.14,-0.32c0.62,-0.21333 1.16,-0.48333 1.62,-0.81c0.45333,-0.32667 0.83,-0.69 1.13,-1.09c0.3,-0.39333 0.52,-0.77667 0.66,-1.15v0v-3.54c-0.4,-0.02667 -0.80667,-0.04667 -1.22,-0.06c-0.41333,-0.02 -0.81667,-0.03 -1.21,-0.03v0c-0.88667,0 -1.74667,0.05 -2.58,0.15c-0.84,0.1 -1.58,0.28667 -2.22,0.56c-0.64,0.26667 -1.15333,0.63667 -1.54,1.11c-0.38667,0.46667 -0.58,1.05667 -0.58,1.77v0c0,0.99333 0.35667,1.81 1.07,2.45c0.71333,0.64 1.62333,0.96 2.73,0.96zM97.40167,136.87v0c0,-0.85333 -0.25333,-1.52 -0.76,-2c-0.51333,-0.48667 -1.14667,-0.89333 -1.9,-1.22c-0.75333,-0.32667 -1.58,-0.64 -2.48,-0.94c-0.89333,-0.29333 -1.71667,-0.67667 -2.47,-1.15c-0.75333,-0.46667 -1.38667,-1.07 -1.9,-1.81c-0.51333,-0.74 -0.77,-1.73667 -0.77,-2.99v0c0,-2.04667 0.58333,-3.54667 1.75,-4.5c1.16667,-0.95333 2.78667,-1.43 4.86,-1.43v0c1.54,0 2.83,0.13667 3.87,0.41c1.03333,0.26667 1.93667,0.58667 2.71,0.96v0l-0.82,2.81c-0.65333,-0.31333 -1.44,-0.59 -2.36,-0.83c-0.92667,-0.24 -1.91667,-0.36 -2.97,-0.36v0c-1.25333,0 -2.17,0.21333 -2.75,0.64c-0.58667,0.42667 -0.88,1.16667 -0.88,2.22v0c0,0.74 0.25667,1.31333 0.77,1.72c0.51333,0.41333 1.14667,0.78333 1.9,1.11c0.75333,0.32667 1.58,0.64667 2.48,0.96c0.89333,0.31333 1.71667,0.72667 2.47,1.24c0.75333,0.51333 1.38667,1.16 1.9,1.94c0.51333,0.78667 0.77,1.82 0.77,3.1v0c0,0.90667 -0.15,1.76 -0.45,2.56c-0.3,0.79333 -0.76333,1.47333 -1.39,2.04c-0.62667,0.57333 -1.4,1.02333 -2.32,1.35c-0.92667,0.32667 -2.01667,0.49 -3.27,0.49v0c-1.62,0 -3,-0.15667 -4.14,-0.47c-1.13333,-0.31333 -2.08333,-0.68333 -2.85,-1.11v0l1.02,-2.9c0.65333,0.36667 1.50667,0.70667 2.56,1.02c1.05333,0.31333 2.12,0.47 3.2,0.47v0c1.22,0 2.23,-0.24 3.03,-0.72c0.79333,-0.48667 1.19,-1.35667 1.19,-2.61zM103.16167,124.33v-2.99h3.33v-4.22l3.42,-0.98v5.2h5.8v2.99h-5.8v11.82c0,1.48 0.18333,2.52333 0.55,3.13c0.36667,0.61333 0.99333,0.92 1.88,0.92v0c0.74,0 1.36333,-0.07667 1.87,-0.23c0.51333,-0.16 1.08333,-0.36667 1.71,-0.62v0l0.77,2.6c-0.76667,0.37333 -1.60667,0.67333 -2.52,0.9c-0.90667,0.22667 -1.88667,0.34 -2.94,0.34v0c-1.73333,0 -2.95667,-0.49 -3.67,-1.47c-0.71333,-0.98667 -1.07,-2.63 -1.07,-4.93v0v-12.46zM134.27167,138.5l1.28,2.47c-0.85333,0.68 -1.92667,1.22 -3.22,1.62c-1.29333,0.4 -2.66667,0.6 -4.12,0.6v0c-1.62,0 -3.02667,-0.26333 -4.22,-0.79c-1.2,-0.52667 -2.18333,-1.28 -2.95,-2.26c-0.76667,-0.98 -1.33667,-2.15333 -1.71,-3.52c-0.36667,-1.36667 -0.55,-2.90333 -0.55,-4.61v0c0,-3.64 0.81,-6.41333 2.43,-8.32c1.62,-1.90667 3.94,-2.86 6.96,-2.86v0c0.96667,0 1.93333,0.10667 2.9,0.32c0.96667,0.21333 1.83333,0.62 2.6,1.22c0.76667,0.59333 1.39333,1.44 1.88,2.54c0.48,1.09333 0.72,2.53667 0.72,4.33v0c0,0.93333 -0.08333,1.97 -0.25,3.11v0h-13.7c0,1.25333 0.13,2.36333 0.39,3.33c0.25333,0.96667 0.65,1.78333 1.19,2.45c0.54,0.67333 1.24333,1.18667 2.11,1.54c0.86667,0.35333 1.92667,0.53 3.18,0.53v0c0.96667,0 1.93333,-0.17 2.9,-0.51c0.96667,-0.34 1.69333,-0.73667 2.18,-1.19zM128.21167,123.82v0c-1.68,0 -3.02333,0.44 -4.03,1.32c-1.01333,0.88 -1.62,2.38667 -1.82,4.52v0h10.59c0,-2.16 -0.41333,-3.67333 -1.24,-4.54c-0.82667,-0.86667 -1.99333,-1.3 -3.5,-1.3zM152.44167,121.34l-0.72,3.29c-0.85333,-0.28667 -1.66333,-0.43 -2.43,-0.43v0c-1.22667,0 -2.19333,0.33333 -2.9,1c-0.71333,0.67333 -1.15667,1.52 -1.33,2.54v0v14.94h-3.41v-21.34h2.39l0.64,2.61h0.17c0.54,-0.96667 1.18667,-1.71333 1.94,-2.24c0.75333,-0.52667 1.71333,-0.79 2.88,-0.79v0c0.82667,0 1.75,0.14 2.77,0.42zM169.60167,138.67l1.11,2.6c-0.85333,0.62667 -1.86333,1.10333 -3.03,1.43c-1.16667,0.32667 -2.39,0.49 -3.67,0.49v0c-1.65333,0 -3.04667,-0.26333 -4.18,-0.79c-1.14,-0.52667 -2.07333,-1.28 -2.8,-2.26c-0.72667,-0.98 -1.25333,-2.16 -1.58,-3.54c-0.32667,-1.38 -0.49,-2.91 -0.49,-4.59v0c0,-3.61333 0.79667,-6.38 2.39,-8.3c1.59333,-1.92 3.88333,-2.88 6.87,-2.88v0c1.36667,0 2.52667,0.10667 3.48,0.32c0.95333,0.21333 1.81333,0.52 2.58,0.92v0l-0.98,2.94c-0.65333,-0.36667 -1.38,-0.65667 -2.18,-0.87c-0.79333,-0.21333 -1.64667,-0.32 -2.56,-0.32v0c-4.04,0 -6.06,2.73 -6.06,8.19v0c0,1.08 0.10667,2.11 0.32,3.09c0.21333,0.98667 0.57,1.85667 1.07,2.61c0.5,0.75333 1.15333,1.35667 1.96,1.81c0.81333,0.45333 1.81667,0.68 3.01,0.68v0c1.02667,0 1.94333,-0.15667 2.75,-0.47c0.81333,-0.31333 1.47667,-0.66667 1.99,-1.06zM176.12167,125.48l-1.06,-2.56c1.08,-0.65333 2.33667,-1.13667 3.77,-1.45c1.44,-0.31333 2.94,-0.47 4.5,-0.47v0c1.48,0 2.67,0.2 3.57,0.6c0.89333,0.4 1.57667,0.92 2.05,1.56c0.46667,0.64 0.77667,1.34333 0.93,2.11c0.16,0.76667 0.24,1.53333 0.24,2.3v0c0,1.70667 -0.04333,3.37 -0.13,4.99c-0.08667,1.62667 -0.13,3.16333 -0.13,4.61v0c0,1.05333 0.04333,2.05 0.13,2.99c0.08667,0.94 0.24333,1.80667 0.47,2.6v0h-2.52l-0.89,-2.98h-0.22c-0.25333,0.39333 -0.57333,0.78333 -0.96,1.17c-0.38,0.38 -0.84,0.72 -1.38,1.02c-0.54,0.3 -1.16667,0.55 -1.88,0.75c-0.71333,0.2 -1.52333,0.3 -2.43,0.3v0c-0.91333,0 -1.76,-0.14333 -2.54,-0.43c-0.78,-0.28667 -1.45667,-0.69 -2.03,-1.21c-0.56667,-0.52667 -1.01333,-1.16 -1.34,-1.9c-0.32667,-0.74 -0.49,-1.58 -0.49,-2.52v0c0,-1.25333 0.25667,-2.3 0.77,-3.14c0.50667,-0.84 1.22333,-1.50667 2.15,-2c0.92667,-0.5 2.03667,-0.85667 3.33,-1.07c1.29333,-0.21333 2.72333,-0.32 4.29,-0.32v0c0.39333,0 0.78333,0 1.17,0c0.38667,0 0.77667,0.03 1.17,0.09v0c0.08667,-0.85333 0.13,-1.62333 0.13,-2.31v0c0,-1.56 -0.31333,-2.65333 -0.94,-3.28c-0.62667,-0.62667 -1.76333,-0.94 -3.41,-0.94v0c-0.48667,0 -1.00667,0.03667 -1.56,0.11c-0.55333,0.06667 -1.12333,0.16333 -1.71,0.29c-0.58,0.13333 -1.13333,0.29 -1.66,0.47c-0.52667,0.18667 -0.99,0.39333 -1.39,0.62zM181.12167,140.03v0c0.79333,0 1.50333,-0.10667 2.13,-0.32c0.62667,-0.21333 1.16667,-0.48333 1.62,-0.81c0.45333,-0.32667 0.83,-0.69 1.13,-1.09c0.3,-0.39333 0.52,-0.77667 0.66,-1.15v0v-3.54c-0.39333,-0.02667 -0.79667,-0.04667 -1.21,-0.06c-0.41333,-0.02 -0.82,-0.03 -1.22,-0.03v0c-0.88,0 -1.74,0.05 -2.58,0.15c-0.84,0.1 -1.58,0.28667 -2.22,0.56c-0.64,0.26667 -1.15333,0.63667 -1.54,1.11c-0.38,0.46667 -0.57,1.05667 -0.57,1.77v0c0,0.99333 0.35667,1.81 1.07,2.45c0.70667,0.64 1.61667,0.96 2.73,0.96zM207.36167,121.34l-0.73,3.29c-0.85333,-0.28667 -1.66333,-0.43 -2.43,-0.43v0c-1.22667,0 -2.19333,0.33333 -2.9,1c-0.71333,0.67333 -1.15667,1.52 -1.33,2.54v0v14.94h-3.41v-21.34h2.39l0.64,2.61h0.17c0.54,-0.96667 1.18667,-1.71333 1.94,-2.24c0.75333,-0.52667 1.71333,-0.79 2.88,-0.79v0c0.82667,0 1.75333,0.14 2.78,0.42zM227.45167,112.81v22.53c0,1.44667 0.01333,2.76 0.04,3.94c0.03333,1.18667 0.16333,2.34667 0.39,3.48v0h-2.31l-0.85,-3.03h-0.17c-0.56667,1 -1.39,1.82667 -2.47,2.48c-1.08667,0.65333 -2.35333,0.98 -3.8,0.98v0c-2.84667,0 -4.96,-0.89667 -6.34,-2.69c-1.38,-1.79333 -2.07,-4.59333 -2.07,-8.4v0c0,-3.64667 0.86,-6.41333 2.58,-8.3c1.72667,-1.89333 4.09667,-2.84 7.11,-2.84v0c1.05333,0 1.88333,0.05667 2.49,0.17c0.61333,0.11333 1.27667,0.29667 1.99,0.55v0v-8.87zM218.83167,140.2v0c1.45333,0 2.60667,-0.37667 3.46,-1.13c0.85333,-0.75333 1.43667,-1.89667 1.75,-3.43v0v-10.58c-0.51333,-0.4 -1.09667,-0.68667 -1.75,-0.86c-0.65333,-0.16667 -1.52,-0.25 -2.6,-0.25v0c-1.96667,0 -3.50333,0.64667 -4.61,1.94c-1.11333,1.29333 -1.67,3.36333 -1.67,6.21v0c0,1.16 0.09333,2.24 0.28,3.24c0.18667,0.99333 0.49333,1.84667 0.92,2.56c0.42667,0.70667 0.98667,1.26667 1.68,1.68c0.7,0.41333 1.54667,0.62 2.54,0.62z"></path></g></g></svg>